<?xml version="1.0" standalone="no"?><!DOCTYPE svg PUBLIC "-//W3C//DTD SVG 1.1//EN" "http://www.w3.org/Graphics/SVG/1.1/DTD/svg11.dtd"><svg t="1656051424514" class="icon" viewBox="0 0 1024 1024" version="1.1" xmlns="http://www.w3.org/2000/svg" p-id="1796" xmlns:xlink="http://www.w3.org/1999/xlink" width="200" height="200"><defs><style type="text/css">@font-face { font-family: feedback-iconfont; src: url("//at.alicdn.com/t/font_1031158_u69w8yhxdu.woff2?t=1630033759944") format("woff2"), url("//at.alicdn.com/t/font_1031158_u69w8yhxdu.woff?t=1630033759944") format("woff"), url("//at.alicdn.com/t/font_1031158_u69w8yhxdu.ttf?t=1630033759944") format("truetype"); }
</style></defs><path d="M384 768a64 64 0 1 0 0.032 128.032A64 64 0 0 0 384 768M704 768a64 64 0 1 0 0.032 128.032A64 64 0 0 0 704 768M312.672 512l-51.424-192h560.96l-51.456 192H312.672z m583.36-224a32 32 0 0 0-32-32H244.064L209.792 128H96.032v64h64.64l145.728 544H800v-64H355.52l-25.696-96h490.048l12.16-45.376 64-238.88-0.768-0.192C895.424 290.336 896 289.28 896 288z" fill="#d81e06" p-id="1797"></path><path d="M448 448h192v-64h-192z" fill="#d81e06" p-id="1798"></path></svg>